<svg width="228" height="40" viewBox="0 0 228 40" fill="none" xmlns="http://www.w3.org/2000/svg">
<path d="M133.66 21.6781V9.96971C133.66 8.54143 134.436 7.7832 135.847 7.7832H143.905C144.84 7.7832 145.633 8.57669 145.633 9.54651C145.633 10.5163 144.84 11.2746 143.905 11.2746H137.804V13.9548H143.729C144.663 13.9548 145.457 14.7483 145.457 15.7181C145.457 16.6879 144.663 17.4814 143.729 17.4814H137.804V20.3732H143.905C144.84 20.3732 145.633 21.1491 145.633 22.1013C145.633 23.0535 144.84 23.8646 143.905 23.8646H135.847C134.418 23.8646 133.66 23.0887 133.66 21.6781Z" fill="#FF2778" stroke="#FF2778" stroke-width="0.25"/>
<path d="M147.914 21.6781V9.96971C147.914 8.54143 148.69 7.7832 150.101 7.7832H154.65C159.711 7.7832 163.361 10.8161 163.361 15.8063C163.361 20.7964 159.728 23.8646 154.685 23.8646H150.101C148.672 23.8646 147.914 23.0887 147.914 21.6781ZM154.668 20.2498C157.489 20.2498 159.129 18.2044 159.129 15.8063C159.129 13.4082 157.63 11.398 154.685 11.398H152.058V20.2498H154.668Z" fill="#FF2778" stroke="#FF2778" stroke-width="0.25"/>
<path d="M165.797 21.9917V9.68379C165.797 8.55527 166.714 7.58545 167.878 7.58545C169.041 7.58545 169.958 8.55527 169.958 9.68379V22.0093C169.958 23.1379 169.041 24.1077 167.878 24.1077C166.714 24.1077 165.797 23.1379 165.797 22.0093V21.9917Z" fill="#FF2778" stroke="#FF2778" stroke-width="0.25"/>
<path d="M176.991 21.9745V11.3946H174.082C173.094 11.3946 172.266 10.6011 172.266 9.57842C172.266 8.5557 173.077 7.76221 174.082 7.76221H184.009C184.997 7.76221 185.843 8.5557 185.843 9.57842C185.843 10.6011 184.997 11.3946 184.009 11.3946H181.135V21.9745C181.135 23.103 180.201 24.0728 179.054 24.0728C177.908 24.0728 176.974 23.103 176.974 21.9745H176.991Z" fill="#FF2778" stroke="#FF2778" stroke-width="0.25"/>
<path d="M195.671 7.5332C200.591 7.5332 204.259 10.954 204.259 15.856C204.259 20.758 200.591 24.1789 195.671 24.1789C190.752 24.1789 187.066 20.758 187.066 15.856C187.066 10.954 190.752 7.5332 195.671 7.5332ZM195.671 11.2009C192.991 11.2009 191.281 13.2287 191.281 15.856C191.281 18.4834 192.991 20.5112 195.671 20.5112C198.352 20.5112 200.027 18.4657 200.027 15.856C200.027 13.2463 198.316 11.2009 195.671 11.2009Z" fill="#FF2778" stroke="#FF2778" stroke-width="0.25"/>
<path d="M219.689 20.7259C219.954 21.0962 220.13 21.537 220.13 22.0308C220.13 23.1593 219.16 24.0762 218.085 24.0762C217.344 24.0762 216.727 23.6706 216.392 23.2122L213.042 18.416H210.697V21.9779C210.697 23.1064 209.78 24.0762 208.616 24.0762C207.452 24.0762 206.535 23.1064 206.535 21.9779V9.96971C206.535 8.54143 207.311 7.7832 208.722 7.7832H214.576C218.138 7.7832 220.166 10.146 220.166 13.1437C220.166 15.6476 218.773 17.1464 217.415 17.7988L219.689 20.7259ZM210.697 14.8893H213.976C215.07 14.8893 215.969 14.184 215.969 13.0731C215.969 11.9623 215.052 11.2569 213.976 11.2569H210.697V14.8717V14.8893Z" fill="#FF2778" stroke="#FF2778" stroke-width="0.25"/>
<path fill-rule="evenodd" clip-rule="evenodd" d="M9.90016 7.66699H20.6631C21.8979 7.66699 22.9031 8.67229 22.9031 9.90701C22.9031 11.1417 21.8979 12.147 20.6631 12.147H17.5162V21.861C17.5162 23.0957 16.5109 24.101 15.2762 24.101C14.0414 24.101 13.0362 23.0957 13.0362 21.861V12.147H9.90016C8.66543 12.147 7.66016 11.1417 7.66016 9.90701C7.66016 8.67229 8.66543 7.66699 9.90016 7.66699ZM71.9142 21.8505C71.9142 23.0852 72.9195 24.0905 74.1541 24.0905C75.389 24.0905 76.3943 23.0852 76.3943 21.8505V15.6003C76.3943 11.1858 72.7775 7.61276 68.3522 7.6783C64.0141 7.74387 60.5612 11.3716 60.5612 15.7205V21.8395C60.5612 23.0743 61.5665 24.0795 62.8011 24.0795C64.036 24.0795 65.0412 23.0743 65.0412 21.8395V15.5894C65.0412 13.6553 66.6583 12.0818 68.6144 12.1583C70.4718 12.2239 71.9142 13.8192 71.9142 15.6768V21.8505ZM119.72 12.1848H114.344C112.268 12.1848 110.519 13.8785 110.574 15.9546C110.607 17.9651 112.257 19.5932 114.278 19.5932H117.491V17.1128C117.491 15.8781 118.496 14.8728 119.731 14.8728C120.965 14.8728 121.971 15.8781 121.971 17.1128V18.8392C121.971 21.7349 119.621 24.0732 116.737 24.0732H114.267C109.711 24.0732 106.017 20.3253 106.083 15.7579C106.149 11.2669 109.896 7.70475 114.388 7.70475H119.72C120.954 7.70475 121.96 8.71005 121.96 9.94477C121.96 11.1795 120.954 12.1848 119.72 12.1848ZM101.342 24.0905C100.107 24.0905 99.1017 23.0852 99.1017 21.8505V15.6768C99.1017 13.8192 97.6593 12.2239 95.8019 12.1583C93.8461 12.0818 92.2287 13.6553 92.2287 15.5894V21.8395C92.2287 23.0743 91.2235 24.0795 89.9889 24.0795C88.754 24.0795 87.7487 23.0743 87.7487 21.8395V15.7205C87.7487 11.3716 91.2017 7.74387 95.5397 7.6783C99.965 7.61276 103.582 11.1858 103.582 15.6003V21.8505C103.593 23.0852 102.588 24.0905 101.342 24.0905ZM32.4709 24.101C27.9362 24.101 24.2539 20.4187 24.2539 15.884C24.2539 11.3494 27.9362 7.66699 32.4709 7.66699C37.0055 7.66699 40.6879 11.3494 40.6879 15.884C40.6879 20.4187 37.0055 24.101 32.4709 24.101ZM32.4709 12.147C30.4167 12.147 28.7339 13.8188 28.7339 15.884C28.7339 17.9492 30.4057 19.621 32.4709 19.621C34.5361 19.621 36.2079 17.9492 36.2079 15.884C36.2079 13.8188 34.5252 12.147 32.4709 12.147ZM42.181 15.884C42.181 20.4187 45.8633 24.101 50.3977 24.101C54.9217 24.101 58.6147 20.4187 58.6147 15.884C58.6147 11.3494 54.9325 7.66699 50.3977 7.66699C45.8633 7.66699 42.181 11.3494 42.181 15.884ZM46.6607 15.884C46.6607 13.8188 48.3435 12.147 50.3977 12.147C52.4522 12.147 54.1347 13.8188 54.1347 15.884C54.1347 17.9492 52.4522 19.621 50.3977 19.621C48.3328 19.621 46.6607 17.9492 46.6607 15.884ZM81.9208 24.101C80.6863 24.101 79.681 23.0957 79.681 21.861V9.90701C79.681 8.67229 80.6863 7.66699 81.9208 7.66699C83.1554 7.66699 84.1607 8.67229 84.1607 9.90701V21.861C84.1607 23.0957 83.1554 24.101 81.9208 24.101ZM30.7791 30.8387C33.795 32.9585 37.4008 34.1058 41.1378 34.1058C44.8746 34.1058 48.4807 32.9585 51.4965 30.8387C52.6001 30.0629 52.7422 28.4785 51.8242 27.4841C51.0704 26.6755 49.8248 26.5335 48.9179 27.1672C46.6559 28.7516 43.9459 29.6149 41.1378 29.6149C38.3296 29.6149 35.6307 28.7516 33.3579 27.1672C32.4509 26.5335 31.2053 26.6755 30.4513 27.4841C29.5225 28.4785 29.6755 30.0629 30.7791 30.8387Z" fill="#FF2778"/>
</svg>
