<svg xmlns="http://www.w3.org/2000/svg" viewBox="0 0 512 512" fill="none">
  <!-- 로봇 파비콘 · 투닝 핑크 -->
  <g fill="#FF2778">
    <!-- 안테나 -->
    <circle cx="118" cy="92" r="34"/>
    <rect x="138" y="104" width="26" height="150" rx="13" transform="rotate(-32 151 179)"/>
    <circle cx="394" cy="92" r="34"/>
    <rect x="348" y="104" width="26" height="150" rx="13" transform="rotate(32 361 179)"/>
    <!-- 양쪽 귀 -->
    <rect x="36" y="250" width="70" height="140" rx="22"/>
    <rect x="406" y="250" width="70" height="140" rx="22"/>
    <!-- 머리 (외곽선 형태) -->
    <path fill-rule="evenodd" clip-rule="evenodd"
      d="M256 196c-112 0-176 64-176 152 0 50 22 90 64 116 14 9 30 14 47 14h130c17 0 33-5 47-14 42-26 64-66 64-116 0-88-64-152-176-152zm0 48c83 0 124 44 124 104 0 33-13 58-40 75-7 5-15 7-23 7H195c-8 0-16-2-23-7-27-17-40-42-40-75 0-60 41-104 124-104z"/>
    <!-- 두 눈 (도넛) -->
    <path fill-rule="evenodd" clip-rule="evenodd" d="M192 312c-31 0-56 25-56 56s25 56 56 56 56-25 56-56-25-56-56-56zm0 38a18 18 0 100 36 18 18 0 000-36z"/>
    <path fill-rule="evenodd" clip-rule="evenodd" d="M320 312c-31 0-56 25-56 56s25 56 56 56 56-25 56-56-25-56-56-56zm0 38a18 18 0 100 36 18 18 0 000-36z"/>
  </g>
</svg>
