<svg width="159" height="24" viewBox="0 0 159 24" fill="none" xmlns="http://www.w3.org/2000/svg">
<path fill-rule="evenodd" clip-rule="evenodd" d="M2.18001 2H10.2522C11.1783 2 11.9322 2.75397 11.9322 3.68001C11.9322 4.60606 11.1783 5.36003 10.2522 5.36003H7.89202V12.6455C7.89202 13.5716 7.13808 14.3255 6.21203 14.3255C5.28597 14.3255 4.53202 13.5716 4.53202 12.6455V5.36003H2.18001C1.25395 5.36003 0.5 4.60606 0.5 3.68001C0.5 2.75397 1.25395 2 2.18001 2ZM48.6886 12.6376C48.6886 13.5636 49.4426 14.3176 50.3685 14.3176C51.2947 14.3176 52.0486 13.5636 52.0486 12.6376V7.94996C52.0486 4.63914 49.336 1.95932 46.017 2.00848C42.7635 2.05766 40.1738 4.77844 40.1738 8.04011V12.6294C40.1738 13.5555 40.9278 14.3094 41.8537 14.3094C42.7799 14.3094 43.5339 13.5555 43.5339 12.6294V7.94177C43.5339 6.49124 44.7466 5.31114 46.2137 5.36851C47.6068 5.41766 48.6886 6.61416 48.6886 8.00735V12.6376ZM84.5427 5.39128H80.5106C78.9536 5.39128 77.6424 6.66153 77.6834 8.21861C77.7079 9.7265 78.9456 10.9476 80.4615 10.9476H82.8709V9.08729C82.8709 8.16124 83.6249 7.40727 84.5508 7.40727C85.477 7.40727 86.2309 8.16124 86.2309 9.08729V10.3821C86.2309 12.5538 84.469 14.3076 82.3056 14.3076H80.4535C77.036 14.3076 74.266 11.4967 74.3151 8.07109C74.3645 4.70288 77.1753 2.03125 80.5436 2.03125H84.5427C85.4687 2.03125 86.2226 2.78522 86.2226 3.71126C86.2226 4.63733 85.4687 5.39128 84.5427 5.39128ZM70.7594 14.3176C69.8332 14.3176 69.0792 13.5636 69.0792 12.6376V8.00735C69.0792 6.61416 67.9974 5.41766 66.6043 5.36851C65.1375 5.31114 63.9245 6.49124 63.9245 7.94177V12.6294C63.9245 13.5555 63.1705 14.3094 62.2446 14.3094C61.3184 14.3094 60.5645 13.5555 60.5645 12.6294V8.04011C60.5645 4.77844 63.1542 2.05766 66.4077 2.00848C69.7267 1.95932 72.4393 4.63914 72.4393 7.94996V12.6376C72.4476 13.5636 71.6936 14.3176 70.7594 14.3176ZM19.1042 14.3255C15.7032 14.3255 12.9414 11.5638 12.9414 8.16275C12.9414 4.76178 15.7032 2 19.1042 2C22.5051 2 25.2669 4.76178 25.2669 8.16275C25.2669 11.5638 22.5051 14.3255 19.1042 14.3255ZM19.1042 5.36003C17.5635 5.36003 16.3014 6.61389 16.3014 8.16275C16.3014 9.71165 17.5553 10.9655 19.1042 10.9655C20.6531 10.9655 21.9069 9.71165 21.9069 8.16275C21.9069 6.61389 20.6448 5.36003 19.1042 5.36003ZM26.3906 8.16275C26.3906 11.5638 29.1523 14.3255 32.5532 14.3255C35.9462 14.3255 38.7159 11.5638 38.7159 8.16275C38.7159 4.76178 35.9542 2 32.5532 2C29.1523 2 26.3906 4.76178 26.3906 8.16275ZM29.7504 8.16275C29.7504 6.61389 31.0125 5.36003 32.5532 5.36003C34.094 5.36003 35.3559 6.61389 35.3559 8.16275C35.3559 9.71165 34.094 10.9655 32.5532 10.9655C31.0045 10.9655 29.7504 9.71165 29.7504 8.16275ZM56.1936 14.3255C55.2676 14.3255 54.5137 13.5716 54.5137 12.6455V3.68001C54.5137 2.75397 55.2676 2 56.1936 2C57.1195 2 57.8734 2.75397 57.8734 3.68001V12.6455C57.8734 13.5716 57.1195 14.3255 56.1936 14.3255ZM17.8373 19.3788C20.0991 20.9686 22.8036 21.8291 25.6063 21.8291C28.4089 21.8291 31.1135 20.9686 33.3753 19.3788C34.203 18.7969 34.3096 17.6086 33.6211 16.8628C33.0557 16.2564 32.1215 16.1499 31.4413 16.6252C29.7448 17.8135 27.7124 18.4609 25.6063 18.4609C23.5001 18.4609 21.4759 17.8135 19.7714 16.6252C19.0911 16.1499 18.1569 16.2564 17.5914 16.8628C16.8948 17.6086 17.0096 18.7969 17.8373 19.3788Z" fill="#4766FF"/>
<path d="M145.764 12.5667V3.83673C145.764 2.74473 146.31 2.19873 147.402 2.19873H150.804C152.724 2.19873 154.284 2.74473 155.484 3.83673C156.696 4.92873 157.302 6.38073 157.302 8.19273C157.302 10.0167 156.696 11.4747 155.484 12.5667C154.284 13.6587 152.73 14.2047 150.822 14.2047H147.402C146.31 14.2047 145.764 13.6587 145.764 12.5667ZM148.86 11.5047H150.804C151.812 11.5047 152.616 11.1867 153.216 10.5507C153.828 9.91473 154.134 9.12873 154.134 8.19273C154.134 7.19673 153.84 6.39873 153.252 5.79873C152.664 5.19873 151.854 4.89873 150.822 4.89873H148.86V11.5047Z" fill="#4766FF" stroke="#4766FF" stroke-width="0.25"/>
<path d="M141.993 9.66873L143.667 11.8647C143.883 12.1767 143.991 12.5007 143.991 12.8367C143.991 13.2567 143.835 13.6167 143.523 13.9167C143.223 14.2167 142.869 14.3667 142.461 14.3667C141.933 14.3667 141.513 14.1507 141.201 13.7187L138.699 10.1367H136.953V12.8007C136.953 13.2327 136.803 13.6047 136.503 13.9167C136.203 14.2167 135.837 14.3667 135.405 14.3667C134.973 14.3667 134.607 14.2167 134.307 13.9167C134.007 13.6047 133.857 13.2327 133.857 12.8007V3.83673C133.857 2.74473 134.403 2.19873 135.495 2.19873H139.869C141.141 2.19873 142.155 2.57673 142.911 3.33273C143.667 4.07673 144.045 5.03073 144.045 6.19473C144.045 7.02273 143.853 7.73673 143.469 8.33673C143.097 8.92473 142.605 9.36873 141.993 9.66873ZM136.953 4.80873V7.50873H139.401C139.833 7.50873 140.187 7.38273 140.463 7.13073C140.751 6.87873 140.895 6.55473 140.895 6.15873C140.895 5.76273 140.751 5.43873 140.463 5.18673C140.187 4.93473 139.833 4.80873 139.401 4.80873H136.953Z" fill="#4766FF" stroke="#4766FF" stroke-width="0.25"/>
<path d="M132.157 12.8006C132.157 13.2326 132.001 13.6046 131.689 13.9166C131.389 14.2166 131.023 14.3666 130.591 14.3666C130.255 14.3666 129.949 14.2646 129.673 14.0606C129.397 13.8446 129.211 13.5806 129.115 13.2686L128.773 12.2426H123.841L123.499 13.2686C123.403 13.5926 123.217 13.8566 122.941 14.0606C122.665 14.2646 122.359 14.3666 122.023 14.3666C121.591 14.3666 121.219 14.2166 120.907 13.9166C120.607 13.6046 120.457 13.2326 120.457 12.8006C120.457 12.6086 120.493 12.4286 120.565 12.2606L123.751 3.80062C123.955 3.26062 124.285 2.83462 124.741 2.52262C125.209 2.19862 125.731 2.03662 126.307 2.03662C126.871 2.03662 127.387 2.20462 127.855 2.54062C128.323 2.86462 128.653 3.28462 128.845 3.80062L132.049 12.2606C132.121 12.4766 132.157 12.6566 132.157 12.8006ZM124.723 9.63262H127.891L126.307 4.89862L124.723 9.63262Z" fill="#4766FF" stroke="#4766FF" stroke-width="0.25"/>
<path d="M113.048 2.00071C114.86 1.97671 116.384 2.56471 117.62 3.76471C118.868 4.95271 119.48 6.43471 119.456 8.21071C119.48 9.98671 118.868 11.4747 117.62 12.6747C116.384 13.8627 114.86 14.4447 113.048 14.4207C111.224 14.4447 109.688 13.8627 108.44 12.6747C107.204 11.4747 106.598 9.98671 106.622 8.21071C106.598 6.43471 107.204 4.95271 108.44 3.76471C109.688 2.56471 111.224 1.97671 113.048 2.00071ZM113.048 4.73671C112.076 4.73671 111.284 5.07271 110.672 5.74471C110.072 6.40471 109.772 7.22671 109.772 8.21071C109.772 9.19471 110.072 10.0227 110.672 10.6947C111.284 11.3547 112.076 11.6847 113.048 11.6847C114.008 11.6847 114.788 11.3547 115.388 10.6947C116 10.0227 116.306 9.19471 116.306 8.21071C116.306 7.22671 116 6.40471 115.388 5.74471C114.788 5.07271 114.008 4.73671 113.048 4.73671Z" fill="#4766FF" stroke="#4766FF" stroke-width="0.25"/>
<path d="M95 12.5667V3.83673C95 2.74473 95.546 2.19873 96.638 2.19873H101.804C102.896 2.19873 103.754 2.49873 104.378 3.09873C105.002 3.69873 105.314 4.41873 105.314 5.25873C105.314 5.96673 105.122 6.56673 104.738 7.05873C104.354 7.55073 103.862 7.86873 103.262 8.01273C103.898 8.09673 104.438 8.42673 104.882 9.00273C105.326 9.55473 105.548 10.2027 105.548 10.9467C105.548 11.8827 105.236 12.6627 104.612 13.2867C104 13.8987 103.136 14.2047 102.02 14.2047H96.638C95.546 14.2047 95 13.6587 95 12.5667ZM98.096 6.84273H101.102C101.414 6.84273 101.666 6.74673 101.858 6.55473C102.062 6.35073 102.164 6.09873 102.164 5.79873C102.164 5.49873 102.062 5.25273 101.858 5.06073C101.666 4.86873 101.414 4.77273 101.102 4.77273H98.096V6.84273ZM98.096 11.6307H101.21C101.57 11.6307 101.858 11.5287 102.074 11.3247C102.29 11.1207 102.398 10.8567 102.398 10.5327C102.398 10.2087 102.29 9.93873 102.074 9.72273C101.858 9.50673 101.57 9.39873 101.21 9.39873H98.096V11.6307Z" fill="#4766FF" stroke="#4766FF" stroke-width="0.25"/>
</svg>
