<svg width="151" height="21" viewBox="0 0 151 21" fill="none" xmlns="http://www.w3.org/2000/svg">
<g id="Group 2608616">
<path id="Union" fill-rule="evenodd" clip-rule="evenodd" d="M2.18001 1H10.2522C11.1783 1 11.9322 1.75397 11.9322 2.68001C11.9322 3.60606 11.1783 4.36003 10.2522 4.36003H7.89202V11.6455C7.89202 12.5716 7.13808 13.3255 6.21203 13.3255C5.28597 13.3255 4.53202 12.5716 4.53202 11.6455V4.36003H2.18001C1.25395 4.36003 0.5 3.60606 0.5 2.68001C0.5 1.75397 1.25395 1 2.18001 1ZM48.6886 11.6376C48.6886 12.5636 49.4426 13.3176 50.3685 13.3176C51.2947 13.3176 52.0486 12.5636 52.0486 11.6376V6.94996C52.0486 3.63914 49.336 0.959323 46.017 1.00848C42.7635 1.05766 40.1738 3.77844 40.1738 7.04011V11.6294C40.1738 12.5555 40.9278 13.3094 41.8537 13.3094C42.7799 13.3094 43.5339 12.5555 43.5339 11.6294V6.94177C43.5339 5.49124 44.7466 4.31114 46.2137 4.36851C47.6068 4.41766 48.6886 5.61416 48.6886 7.00735V11.6376ZM84.5427 4.39128H80.5106C78.9536 4.39128 77.6424 5.66153 77.6834 7.21861C77.7079 8.7265 78.9456 9.94758 80.4615 9.94758H82.8709V8.08729C82.8709 7.16124 83.6249 6.40727 84.5508 6.40727C85.477 6.40727 86.2309 7.16124 86.2309 8.08729V9.38212C86.2309 11.5538 84.469 13.3076 82.3056 13.3076H80.4535C77.036 13.3076 74.266 10.4967 74.3151 7.07109C74.3645 3.70288 77.1753 1.03125 80.5436 1.03125H84.5427C85.4687 1.03125 86.2226 1.78522 86.2226 2.71126C86.2226 3.63733 85.4687 4.39128 84.5427 4.39128ZM70.7594 13.3176C69.8332 13.3176 69.0792 12.5636 69.0792 11.6376V7.00735C69.0792 5.61416 67.9974 4.41766 66.6043 4.36851C65.1375 4.31114 63.9245 5.49124 63.9245 6.94177V11.6294C63.9245 12.5555 63.1705 13.3094 62.2446 13.3094C61.3184 13.3094 60.5645 12.5555 60.5645 11.6294V7.04011C60.5645 3.77844 63.1542 1.05766 66.4077 1.00848C69.7267 0.959323 72.4393 3.63914 72.4393 6.94996V11.6376C72.4476 12.5636 71.6936 13.3176 70.7594 13.3176ZM19.1042 13.3255C15.7032 13.3255 12.9414 10.5638 12.9414 7.16275C12.9414 3.76178 15.7032 1 19.1042 1C22.5051 1 25.2669 3.76178 25.2669 7.16275C25.2669 10.5638 22.5051 13.3255 19.1042 13.3255ZM19.1042 4.36003C17.5635 4.36003 16.3014 5.61389 16.3014 7.16275C16.3014 8.71165 17.5553 9.96551 19.1042 9.96551C20.6531 9.96551 21.9069 8.71165 21.9069 7.16275C21.9069 5.61389 20.6448 4.36003 19.1042 4.36003ZM26.3906 7.16275C26.3906 10.5638 29.1523 13.3255 32.5532 13.3255C35.9462 13.3255 38.7159 10.5638 38.7159 7.16275C38.7159 3.76178 35.9542 1 32.5532 1C29.1523 1 26.3906 3.76178 26.3906 7.16275ZM29.7504 7.16275C29.7504 5.61389 31.0125 4.36003 32.5532 4.36003C34.094 4.36003 35.3559 5.61389 35.3559 7.16275C35.3559 8.71165 34.094 9.96551 32.5532 9.96551C31.0045 9.96551 29.7504 8.71165 29.7504 7.16275ZM56.1936 13.3255C55.2676 13.3255 54.5137 12.5716 54.5137 11.6455V2.68001C54.5137 1.75397 55.2676 1 56.1936 1C57.1195 1 57.8734 1.75397 57.8734 2.68001V11.6455C57.8734 12.5716 57.1195 13.3255 56.1936 13.3255ZM17.8373 18.3788C20.0991 19.9686 22.8036 20.8291 25.6063 20.8291C28.4089 20.8291 31.1135 19.9686 33.3753 18.3788C34.203 17.7969 34.3096 16.6086 33.6211 15.8628C33.0557 15.2564 32.1215 15.1499 31.4413 15.6252C29.7448 16.8135 27.7124 17.4609 25.6063 17.4609C23.5001 17.4609 21.4759 16.8135 19.7714 15.6252C19.0911 15.1499 18.1569 15.2564 17.5914 15.8628C16.8948 16.6086 17.0096 17.7969 17.8373 18.3788Z" fill="#FF7627"/>
<g id="Layer 1">
<g id="Group">
<path id="Vector" d="M105.095 11.5247V5.01488L102.335 12.473C102.209 12.8062 101.906 13.0497 101.528 13.0497C101.15 13.0497 100.86 12.8062 100.734 12.473L97.9743 5.01488V11.5376C97.9743 12.3577 97.319 13.0625 96.4872 13.0625C95.6554 13.0625 95 12.3577 95 11.5376V3.48993C95 2.15721 96.0713 1.05515 97.3946 1.05515C98.4154 1.05515 99.3103 1.72151 99.6379 2.66979L101.516 7.83411L103.406 2.66979C103.747 1.72151 104.629 1.05515 105.662 1.05515C106.973 1.05515 108.044 2.15721 108.044 3.48993V11.5376C108.044 12.3577 107.389 13.0625 106.557 13.0625C105.725 13.0625 105.093 12.3577 105.093 11.5376L105.095 11.5247Z" fill="#FF7627" stroke="#FF7627" stroke-width="0.25" stroke-linejoin="round"/>
<path id="Vector_2" d="M121.028 11.5218C121.028 12.3676 120.36 13.0468 119.528 13.0468C118.872 13.0468 118.293 12.5854 118.116 11.9831L117.789 10.9836H113.062L112.735 11.9831C112.546 12.5982 111.978 13.0468 111.323 13.0468C110.491 13.0468 109.823 12.3676 109.823 11.5218C109.823 11.3424 109.861 11.1502 109.924 10.9964L112.974 2.75657C113.352 1.75702 114.297 1.0394 115.419 1.0394C116.541 1.0394 117.486 1.75702 117.852 2.75657L120.914 10.9964C120.964 11.1502 121.025 11.3424 121.025 11.5218H121.028ZM116.944 8.43347L115.432 3.82018L113.919 8.43347H116.957H116.944Z" fill="#FF7627" stroke="#FF7627" stroke-width="0.25" stroke-linejoin="round"/>
<g id="Group 2608614">
<path id="Vector_3" d="M133.442 7.56112V9.66273C133.442 10.47 133.24 11.0852 132.61 11.6106C131.488 12.5332 130.077 13.0971 128.35 13.0971C124.922 13.0971 122.124 10.7648 122.124 7.04853C122.124 3.33227 124.909 1 128.35 1C129.988 1 131.198 1.53822 132.093 2.37117C132.408 2.61465 132.597 3.02472 132.597 3.43479C132.597 4.2293 131.98 4.83159 131.223 4.83159C130.858 4.83159 130.518 4.69063 130.278 4.45996C129.774 3.98582 129.144 3.65264 128.363 3.65264C126.485 3.65264 125.161 5.12633 125.161 7.03572C125.161 8.9451 126.485 10.4188 128.363 10.4188C129.358 10.4188 130.089 10.0856 130.48 9.71398V8.80414H128.98C128.312 8.80414 127.745 8.21467 127.745 7.50986C127.745 6.80505 128.312 6.16432 128.98 6.16432H132.118C132.874 6.16432 133.442 6.77942 133.442 7.5483V7.56112Z" fill="#FF7627" stroke="#FF7627" stroke-width="0.25" stroke-linejoin="round"/>
<g id="Group 2608615">
<path id="Vector_4" d="M135.279 11.5247V2.58006C135.279 1.75992 135.935 1.05511 136.766 1.05511C137.598 1.05511 138.254 1.75992 138.254 2.58006V11.5375C138.254 12.3577 137.598 13.0625 136.766 13.0625C135.935 13.0625 135.279 12.3577 135.279 11.5375V11.5247Z" fill="#FF7627" stroke="#FF7627" stroke-width="0.25" stroke-linejoin="round"/>
<path id="Vector_5" d="M139.858 7.06428C139.858 3.45054 142.542 1.01575 145.996 1.01575C147.937 1.01575 149.273 1.74618 150.167 2.74573C150.394 2.98921 150.545 3.3352 150.545 3.70683C150.545 4.47571 149.903 5.12926 149.134 5.12926C148.718 5.12926 148.34 4.94985 148.088 4.65512C147.584 4.06564 146.853 3.66839 146.008 3.66839C144.219 3.66839 142.895 5.14207 142.895 7.05146C142.895 8.96085 144.219 10.4345 146.008 10.4345C146.853 10.4345 147.596 10.0501 148.113 9.44781C148.353 9.15307 148.731 8.97366 149.146 8.97366C149.903 8.97366 150.545 9.60158 150.545 10.3961C150.545 10.7421 150.407 11.0753 150.18 11.3444C149.273 12.3439 147.962 13.1 146.008 13.1C142.568 13.1 139.871 10.6524 139.871 7.05146L139.858 7.06428Z" fill="#FF7627" stroke="#FF7627" stroke-width="0.25" stroke-linejoin="round"/>
</g>
</g>
</g>
</g>
</g>
</svg>
